<svg xmlns="http://www.w3.org/2000/svg" width="750" height="1200" viewBox="0 0 750 1200" role="img" aria-labelledby="title desc">
  <title id="title">Sota de Bastos</title>
  <desc id="desc">Traditional-style Baraja Espanola playing card.</desc>
  <defs>
    <linearGradient id="paperGradient" x1="0" y1="0" x2="0" y2="1">
      <stop offset="0%" stop-color="#fffdf6"/>
      <stop offset="100%" stop-color="#f5eddc"/>
    </linearGradient>
    <filter id="shadow" x="-20%" y="-20%" width="140%" height="140%">
      <feDropShadow dx="0" dy="6" stdDeviation="8" flood-color="#000000" flood-opacity="0.18"/>
    </filter>
  </defs>
    <rect x="18" y="18" width="714" height="1164" rx="34" fill="url(#paperGradient)" stroke="#1f1b16" stroke-width="5" filter="url(#shadow)"/>
  <rect x="40" y="40" width="670" height="1120" rx="24" fill="none" stroke="#556227" stroke-width="4"/>
<g transform="translate(100 140) rotate(0)">
  <rect x="-14.96" y="-78.88" width="29.92" height="157.76" rx="13.6" fill="#8b6331" stroke="#314116" stroke-width="4.08"/>
  <path d="M -14.96 -46.24 C -46.24 -35.36, -46.24 0, -13.6 8.16" fill="none" stroke="#5c6b2d" stroke-width="4.08"/>
  <path d="M -14.96 38.08 C 48.96 24.48, 48.96 -8.16, 13.6 -19.04" fill="none" stroke="#5c6b2d" stroke-width="4.08"/>
  <path d="M -5.44 -81.6 C -29.92 -111.52, -46.24 -106.08, -38.08 -68 C -27.2 -48.96, -10.88 -59.84, -5.44 -81.6 Z" fill="#b4c08b" stroke="#314116" stroke-width="4.08"/>
  <path d="M 5.44 81.6 C 29.92 111.52, 46.24 106.08, 38.08 68 C 27.2 48.96, 10.88 59.84, 5.44 81.6 Z" fill="#b4c08b" stroke="#314116" stroke-width="4.08"/>
</g>
  <g transform="translate(750 1198) rotate(180)">
<g transform="translate(100 140) rotate(0)">
  <rect x="-14.96" y="-78.88" width="29.92" height="157.76" rx="13.6" fill="#8b6331" stroke="#314116" stroke-width="4.08"/>
  <path d="M -14.96 -46.24 C -46.24 -35.36, -46.24 0, -13.6 8.16" fill="none" stroke="#5c6b2d" stroke-width="4.08"/>
  <path d="M -14.96 38.08 C 48.96 24.48, 48.96 -8.16, 13.6 -19.04" fill="none" stroke="#5c6b2d" stroke-width="4.08"/>
  <path d="M -5.44 -81.6 C -29.92 -111.52, -46.24 -106.08, -38.08 -68 C -27.2 -48.96, -10.88 -59.84, -5.44 -81.6 Z" fill="#b4c08b" stroke="#314116" stroke-width="4.08"/>
  <path d="M 5.44 81.6 C 29.92 111.52, 46.24 106.08, 38.08 68 C 27.2 48.96, 10.88 59.84, 5.44 81.6 Z" fill="#b4c08b" stroke="#314116" stroke-width="4.08"/>
</g>
  </g>
  <text x="590" y="200" text-anchor="middle" font-size="192" font-family="Georgia, Times New Roman, serif" font-weight="700" fill="#314116">10</text>
  <g transform="translate(160 1000) rotate(180)">
    <text x="0" y="0" text-anchor="middle" font-size="192" font-family="Georgia, Times New Roman, serif" font-weight="700" fill="#314116">10</text>
  </g>
  <ellipse cx="375" cy="600" rx="160" ry="240" fill="#fbf6ec" stroke="#556227" stroke-width="4"/>
  <text x="375" y="660" text-anchor="middle" dominant-baseline="middle" font-size="480">&#x1F472;</text>
  <g transform="translate(190 840) rotate(-30)">
  <rect x="-28.6" y="-150.8" width="57.2" height="301.6" rx="26" fill="#8b6331" stroke="#314116" stroke-width="7.8"/>
  <path d="M -28.6 -88.4 C -88.4 -67.6, -88.4 0, -26 15.6" fill="none" stroke="#5c6b2d" stroke-width="7.8"/>
  <path d="M -28.6 72.8 C 93.6 46.8, 93.6 -15.6, 26 -36.4" fill="none" stroke="#5c6b2d" stroke-width="7.8"/>
  <path d="M -10.4 -156 C -57.2 -213.2, -88.4 -202.8, -72.8 -130 C -52 -93.6, -20.8 -114.4, -10.4 -156 Z" fill="#b4c08b" stroke="#314116" stroke-width="7.8"/>
  <path d="M 10.4 156 C 57.2 213.2, 88.4 202.8, 72.8 130 C 52 93.6, 20.8 114.4, 10.4 156 Z" fill="#b4c08b" stroke="#314116" stroke-width="7.8"/>
</g>
  <rect x="200" y="230" width="350" height="110" rx="12" fill="#314116" opacity="0.72"/>
  <text x="375" y="300" text-anchor="middle" dominant-baseline="middle" font-size="88" font-family="Georgia, Times New Roman, serif" font-weight="700" fill="#f8eed6" letter-spacing="8">SOTA</text>
</svg>
