<svg xmlns="http://www.w3.org/2000/svg" width="750" height="1200" viewBox="0 0 750 1200" role="img" aria-labelledby="title desc">
  <title id="title">Tres de Bastos</title>
  <desc id="desc">Traditional-style Baraja Espanola playing card.</desc>
  <defs>
    <linearGradient id="paperGradient" x1="0" y1="0" x2="0" y2="1">
      <stop offset="0%" stop-color="#fffdf6"/>
      <stop offset="100%" stop-color="#f5eddc"/>
    </linearGradient>
    <filter id="shadow" x="-20%" y="-20%" width="140%" height="140%">
      <feDropShadow dx="0" dy="6" stdDeviation="8" flood-color="#000000" flood-opacity="0.18"/>
    </filter>
  </defs>
    <rect x="18" y="18" width="714" height="1164" rx="34" fill="url(#paperGradient)" stroke="#1f1b16" stroke-width="5" filter="url(#shadow)"/>
  <rect x="40" y="40" width="670" height="1120" rx="24" fill="none" stroke="#556227" stroke-width="4"/>
<g transform="translate(100 140) rotate(0)">
  <rect x="-14.96" y="-78.88" width="29.92" height="157.76" rx="13.6" fill="#8b6331" stroke="#314116" stroke-width="4.08"/>
  <path d="M -14.96 -46.24 C -46.24 -35.36, -46.24 0, -13.6 8.16" fill="none" stroke="#5c6b2d" stroke-width="4.08"/>
  <path d="M -14.96 38.08 C 48.96 24.48, 48.96 -8.16, 13.6 -19.04" fill="none" stroke="#5c6b2d" stroke-width="4.08"/>
  <path d="M -5.44 -81.6 C -29.92 -111.52, -46.24 -106.08, -38.08 -68 C -27.2 -48.96, -10.88 -59.84, -5.44 -81.6 Z" fill="#b4c08b" stroke="#314116" stroke-width="4.08"/>
  <path d="M 5.44 81.6 C 29.92 111.52, 46.24 106.08, 38.08 68 C 27.2 48.96, 10.88 59.84, 5.44 81.6 Z" fill="#b4c08b" stroke="#314116" stroke-width="4.08"/>
</g>
  <g transform="translate(750 1198) rotate(180)">
<g transform="translate(100 140) rotate(0)">
  <rect x="-14.96" y="-78.88" width="29.92" height="157.76" rx="13.6" fill="#8b6331" stroke="#314116" stroke-width="4.08"/>
  <path d="M -14.96 -46.24 C -46.24 -35.36, -46.24 0, -13.6 8.16" fill="none" stroke="#5c6b2d" stroke-width="4.08"/>
  <path d="M -14.96 38.08 C 48.96 24.48, 48.96 -8.16, 13.6 -19.04" fill="none" stroke="#5c6b2d" stroke-width="4.08"/>
  <path d="M -5.44 -81.6 C -29.92 -111.52, -46.24 -106.08, -38.08 -68 C -27.2 -48.96, -10.88 -59.84, -5.44 -81.6 Z" fill="#b4c08b" stroke="#314116" stroke-width="4.08"/>
  <path d="M 5.44 81.6 C 29.92 111.52, 46.24 106.08, 38.08 68 C 27.2 48.96, 10.88 59.84, 5.44 81.6 Z" fill="#b4c08b" stroke="#314116" stroke-width="4.08"/>
</g>
  </g>
  <text x="620" y="200" text-anchor="middle" font-size="212" font-family="Georgia, Times New Roman, serif" font-weight="700" fill="#314116">3</text>
  <g transform="translate(130 1000) rotate(180)">
    <text x="0" y="0" text-anchor="middle" font-size="212" font-family="Georgia, Times New Roman, serif" font-weight="700" fill="#314116">3</text>
  </g>
<g transform="translate(375 320) rotate(0)">
  <rect x="-20.9" y="-110.2" width="41.8" height="220.4" rx="19" fill="#8b6331" stroke="#314116" stroke-width="5.7"/>
  <path d="M -20.9 -64.6 C -64.6 -49.4, -64.6 0, -19 11.4" fill="none" stroke="#5c6b2d" stroke-width="5.7"/>
  <path d="M -20.9 53.2 C 68.4 34.2, 68.4 -11.4, 19 -26.6" fill="none" stroke="#5c6b2d" stroke-width="5.7"/>
  <path d="M -7.6 -114 C -41.8 -155.8, -64.6 -148.2, -53.2 -95 C -38 -68.4, -15.2 -83.6, -7.6 -114 Z" fill="#b4c08b" stroke="#314116" stroke-width="5.7"/>
  <path d="M 7.6 114 C 41.8 155.8, 64.6 148.2, 53.2 95 C 38 68.4, 15.2 83.6, 7.6 114 Z" fill="#b4c08b" stroke="#314116" stroke-width="5.7"/>
</g>
<g transform="translate(375 600) rotate(-45)">
  <rect x="-31.35" y="-165.3" width="62.7" height="330.6" rx="28.5" fill="#8b6331" stroke="#314116" stroke-width="8.55"/>
  <path d="M -31.35 -96.9 C -96.9 -74.1, -96.9 0, -28.5 17.1" fill="none" stroke="#5c6b2d" stroke-width="8.55"/>
  <path d="M -31.35 79.8 C 102.6 51.3, 102.6 -17.1, 28.5 -39.9" fill="none" stroke="#5c6b2d" stroke-width="8.55"/>
  <path d="M -11.4 -171 C -62.7 -233.7, -96.9 -222.3, -79.8 -142.5 C -57 -102.6, -22.8 -125.4, -11.4 -171 Z" fill="#b4c08b" stroke="#314116" stroke-width="8.55"/>
  <path d="M 11.4 171 C 62.7 233.7, 96.9 222.3, 79.8 142.5 C 57 102.6, 22.8 125.4, 11.4 171 Z" fill="#b4c08b" stroke="#314116" stroke-width="8.55"/>
</g>
<g transform="translate(375 880) rotate(180)">
  <rect x="-20.9" y="-110.2" width="41.8" height="220.4" rx="19" fill="#8b6331" stroke="#314116" stroke-width="5.7"/>
  <path d="M -20.9 -64.6 C -64.6 -49.4, -64.6 0, -19 11.4" fill="none" stroke="#5c6b2d" stroke-width="5.7"/>
  <path d="M -20.9 53.2 C 68.4 34.2, 68.4 -11.4, 19 -26.6" fill="none" stroke="#5c6b2d" stroke-width="5.7"/>
  <path d="M -7.6 -114 C -41.8 -155.8, -64.6 -148.2, -53.2 -95 C -38 -68.4, -15.2 -83.6, -7.6 -114 Z" fill="#b4c08b" stroke="#314116" stroke-width="5.7"/>
  <path d="M 7.6 114 C 41.8 155.8, 64.6 148.2, 53.2 95 C 38 68.4, 15.2 83.6, 7.6 114 Z" fill="#b4c08b" stroke="#314116" stroke-width="5.7"/>
</g>
</svg>
