<svg xmlns="http://www.w3.org/2000/svg" width="750" height="1200" viewBox="0 0 750 1200" role="img" aria-labelledby="title desc">
  <title id="title">As de Bastos</title>
  <desc id="desc">Traditional-style Baraja Espanola playing card.</desc>
  <defs>
    <linearGradient id="paperGradient" x1="0" y1="0" x2="0" y2="1">
      <stop offset="0%" stop-color="#fffdf6"/>
      <stop offset="100%" stop-color="#f5eddc"/>
    </linearGradient>
    <filter id="shadow" x="-20%" y="-20%" width="140%" height="140%">
      <feDropShadow dx="0" dy="6" stdDeviation="8" flood-color="#000000" flood-opacity="0.18"/>
    </filter>
  </defs>
    <rect x="18" y="18" width="714" height="1164" rx="34" fill="url(#paperGradient)" stroke="#1f1b16" stroke-width="5" filter="url(#shadow)"/>
  <path d="M 50 74 V 1126" fill="none" stroke="#556227" stroke-width="20"/>
    <path d="M 700 74 V 1126" fill="none" stroke="#556227" stroke-width="20"/>
    <path d="M 50 74 A 24 24 0 0 1 74 50" fill="none" stroke="#556227" stroke-width="20"/>
    <path d="M 676 50 A 24 24 0 0 1 700 74" fill="none" stroke="#556227" stroke-width="20"/>
    <path d="M 50 1126 A 24 24 0 0 0 74 1150" fill="none" stroke="#556227" stroke-width="20"/>
    <path d="M 676 1150 A 24 24 0 0 0 700 1126" fill="none" stroke="#556227" stroke-width="20"/>
  <path d="M 74 50 H 152.5" fill="none" stroke="#556227" stroke-width="20"/>
  <path d="M 248.5 50 H 327" fill="none" stroke="#556227" stroke-width="20"/>
  <path d="M 423 50 H 501.5" fill="none" stroke="#556227" stroke-width="20"/>
  <path d="M 597.5 50 H 676" fill="none" stroke="#556227" stroke-width="20"/>
  <path d="M 74 1150 H 152.5" fill="none" stroke="#556227" stroke-width="20"/>
  <path d="M 248.5 1150 H 327" fill="none" stroke="#556227" stroke-width="20"/>
  <path d="M 423 1150 H 501.5" fill="none" stroke="#556227" stroke-width="20"/>
  <path d="M 597.5 1150 H 676" fill="none" stroke="#556227" stroke-width="20"/>
<g transform="translate(100 140) rotate(0)">
  <rect x="-14.96" y="-78.88" width="29.92" height="157.76" rx="13.6" fill="#8b6331" stroke="#314116" stroke-width="4.08"/>
  <path d="M -14.96 -46.24 C -46.24 -35.36, -46.24 0, -13.6 8.16" fill="none" stroke="#5c6b2d" stroke-width="4.08"/>
  <path d="M -14.96 38.08 C 48.96 24.48, 48.96 -8.16, 13.6 -19.04" fill="none" stroke="#5c6b2d" stroke-width="4.08"/>
  <path d="M -5.44 -81.6 C -29.92 -111.52, -46.24 -106.08, -38.08 -68 C -27.2 -48.96, -10.88 -59.84, -5.44 -81.6 Z" fill="#b4c08b" stroke="#314116" stroke-width="4.08"/>
  <path d="M 5.44 81.6 C 29.92 111.52, 46.24 106.08, 38.08 68 C 27.2 48.96, 10.88 59.84, 5.44 81.6 Z" fill="#b4c08b" stroke="#314116" stroke-width="4.08"/>
</g>
  <g transform="translate(750 1198) rotate(180)">
<g transform="translate(100 140) rotate(0)">
  <rect x="-14.96" y="-78.88" width="29.92" height="157.76" rx="13.6" fill="#8b6331" stroke="#314116" stroke-width="4.08"/>
  <path d="M -14.96 -46.24 C -46.24 -35.36, -46.24 0, -13.6 8.16" fill="none" stroke="#5c6b2d" stroke-width="4.08"/>
  <path d="M -14.96 38.08 C 48.96 24.48, 48.96 -8.16, 13.6 -19.04" fill="none" stroke="#5c6b2d" stroke-width="4.08"/>
  <path d="M -5.44 -81.6 C -29.92 -111.52, -46.24 -106.08, -38.08 -68 C -27.2 -48.96, -10.88 -59.84, -5.44 -81.6 Z" fill="#b4c08b" stroke="#314116" stroke-width="4.08"/>
  <path d="M 5.44 81.6 C 29.92 111.52, 46.24 106.08, 38.08 68 C 27.2 48.96, 10.88 59.84, 5.44 81.6 Z" fill="#b4c08b" stroke="#314116" stroke-width="4.08"/>
</g>
  </g>
  <text x="620" y="200" text-anchor="middle" font-size="212" font-family="Georgia, Times New Roman, serif" font-weight="700" fill="#314116">1</text>
  <g transform="translate(130 1000) rotate(180)">
    <text x="0" y="0" text-anchor="middle" font-size="212" font-family="Georgia, Times New Roman, serif" font-weight="700" fill="#314116">1</text>
  </g>
  <ellipse cx="375" cy="600" rx="160" ry="240" fill="#fbf6ec" stroke="#556227" stroke-width="4"/>
  <g transform="translate(375 600) rotate(0)">
  <rect x="-41.8" y="-220.4" width="83.6" height="440.8" rx="38" fill="#8b6331" stroke="#314116" stroke-width="11.4"/>
  <path d="M -41.8 -129.2 C -129.2 -98.8, -129.2 0, -38 22.8" fill="none" stroke="#5c6b2d" stroke-width="11.4"/>
  <path d="M -41.8 106.4 C 136.8 68.4, 136.8 -22.8, 38 -53.2" fill="none" stroke="#5c6b2d" stroke-width="11.4"/>
  <path d="M -15.2 -228 C -83.6 -311.6, -129.2 -296.4, -106.4 -190 C -76 -136.8, -30.4 -167.2, -15.2 -228 Z" fill="#b4c08b" stroke="#314116" stroke-width="11.4"/>
  <path d="M 15.2 228 C 83.6 311.6, 129.2 296.4, 106.4 190 C 76 136.8, 30.4 167.2, 15.2 228 Z" fill="#b4c08b" stroke="#314116" stroke-width="11.4"/>
</g>
</svg>
