<svg xmlns="http://www.w3.org/2000/svg" width="750" height="1200" viewBox="0 0 750 1200" role="img" aria-labelledby="title desc">
  <title id="title">Cinco de Bastos</title>
  <desc id="desc">Traditional-style Baraja Espanola playing card.</desc>
  <defs>
    <linearGradient id="paperGradient" x1="0" y1="0" x2="0" y2="1">
      <stop offset="0%" stop-color="#fffdf6"/>
      <stop offset="100%" stop-color="#f5eddc"/>
    </linearGradient>
    <filter id="shadow" x="-20%" y="-20%" width="140%" height="140%">
      <feDropShadow dx="0" dy="6" stdDeviation="8" flood-color="#000000" flood-opacity="0.18"/>
    </filter>
  </defs>
    <rect x="18" y="18" width="714" height="1164" rx="34" fill="url(#paperGradient)" stroke="#1f1b16" stroke-width="5" filter="url(#shadow)"/>
  <rect x="40" y="40" width="670" height="1120" rx="24" fill="none" stroke="#556227" stroke-width="4"/>
<g transform="translate(100 140) rotate(0)">
  <rect x="-14.96" y="-78.88" width="29.92" height="157.76" rx="13.6" fill="#8b6331" stroke="#314116" stroke-width="4.08"/>
  <path d="M -14.96 -46.24 C -46.24 -35.36, -46.24 0, -13.6 8.16" fill="none" stroke="#5c6b2d" stroke-width="4.08"/>
  <path d="M -14.96 38.08 C 48.96 24.48, 48.96 -8.16, 13.6 -19.04" fill="none" stroke="#5c6b2d" stroke-width="4.08"/>
  <path d="M -5.44 -81.6 C -29.92 -111.52, -46.24 -106.08, -38.08 -68 C -27.2 -48.96, -10.88 -59.84, -5.44 -81.6 Z" fill="#b4c08b" stroke="#314116" stroke-width="4.08"/>
  <path d="M 5.44 81.6 C 29.92 111.52, 46.24 106.08, 38.08 68 C 27.2 48.96, 10.88 59.84, 5.44 81.6 Z" fill="#b4c08b" stroke="#314116" stroke-width="4.08"/>
</g>
  <g transform="translate(750 1198) rotate(180)">
<g transform="translate(100 140) rotate(0)">
  <rect x="-14.96" y="-78.88" width="29.92" height="157.76" rx="13.6" fill="#8b6331" stroke="#314116" stroke-width="4.08"/>
  <path d="M -14.96 -46.24 C -46.24 -35.36, -46.24 0, -13.6 8.16" fill="none" stroke="#5c6b2d" stroke-width="4.08"/>
  <path d="M -14.96 38.08 C 48.96 24.48, 48.96 -8.16, 13.6 -19.04" fill="none" stroke="#5c6b2d" stroke-width="4.08"/>
  <path d="M -5.44 -81.6 C -29.92 -111.52, -46.24 -106.08, -38.08 -68 C -27.2 -48.96, -10.88 -59.84, -5.44 -81.6 Z" fill="#b4c08b" stroke="#314116" stroke-width="4.08"/>
  <path d="M 5.44 81.6 C 29.92 111.52, 46.24 106.08, 38.08 68 C 27.2 48.96, 10.88 59.84, 5.44 81.6 Z" fill="#b4c08b" stroke="#314116" stroke-width="4.08"/>
</g>
  </g>
  <text x="620" y="200" text-anchor="middle" font-size="212" font-family="Georgia, Times New Roman, serif" font-weight="700" fill="#314116">5</text>
  <g transform="translate(130 1000) rotate(180)">
    <text x="0" y="0" text-anchor="middle" font-size="212" font-family="Georgia, Times New Roman, serif" font-weight="700" fill="#314116">5</text>
  </g>
<g transform="translate(260 340) rotate(0)">
  <rect x="-19.36" y="-102.08" width="38.72" height="204.16" rx="17.6" fill="#8b6331" stroke="#314116" stroke-width="5.28"/>
  <path d="M -19.36 -59.84 C -59.84 -45.76, -59.84 0, -17.6 10.56" fill="none" stroke="#5c6b2d" stroke-width="5.28"/>
  <path d="M -19.36 49.28 C 63.36 31.68, 63.36 -10.56, 17.6 -24.64" fill="none" stroke="#5c6b2d" stroke-width="5.28"/>
  <path d="M -7.04 -105.6 C -38.72 -144.32, -59.84 -137.28, -49.28 -88 C -35.2 -63.36, -14.08 -77.44, -7.04 -105.6 Z" fill="#b4c08b" stroke="#314116" stroke-width="5.28"/>
  <path d="M 7.04 105.6 C 38.72 144.32, 59.84 137.28, 49.28 88 C 35.2 63.36, 14.08 77.44, 7.04 105.6 Z" fill="#b4c08b" stroke="#314116" stroke-width="5.28"/>
</g>
<g transform="translate(490 340) rotate(0)">
  <rect x="-19.36" y="-102.08" width="38.72" height="204.16" rx="17.6" fill="#8b6331" stroke="#314116" stroke-width="5.28"/>
  <path d="M -19.36 -59.84 C -59.84 -45.76, -59.84 0, -17.6 10.56" fill="none" stroke="#5c6b2d" stroke-width="5.28"/>
  <path d="M -19.36 49.28 C 63.36 31.68, 63.36 -10.56, 17.6 -24.64" fill="none" stroke="#5c6b2d" stroke-width="5.28"/>
  <path d="M -7.04 -105.6 C -38.72 -144.32, -59.84 -137.28, -49.28 -88 C -35.2 -63.36, -14.08 -77.44, -7.04 -105.6 Z" fill="#b4c08b" stroke="#314116" stroke-width="5.28"/>
  <path d="M 7.04 105.6 C 38.72 144.32, 59.84 137.28, 49.28 88 C 35.2 63.36, 14.08 77.44, 7.04 105.6 Z" fill="#b4c08b" stroke="#314116" stroke-width="5.28"/>
</g>
<g transform="translate(375 600) rotate(0)">
  <rect x="-29.04" y="-153.12" width="58.08" height="306.24" rx="26.4" fill="#8b6331" stroke="#314116" stroke-width="7.92"/>
  <path d="M -29.04 -89.76 C -89.76 -68.64, -89.76 0, -26.4 15.84" fill="none" stroke="#5c6b2d" stroke-width="7.92"/>
  <path d="M -29.04 73.92 C 95.04 47.52, 95.04 -15.84, 26.4 -36.96" fill="none" stroke="#5c6b2d" stroke-width="7.92"/>
  <path d="M -10.56 -158.4 C -58.08 -216.48, -89.76 -205.92, -73.92 -132 C -52.8 -95.04, -21.12 -116.16, -10.56 -158.4 Z" fill="#b4c08b" stroke="#314116" stroke-width="7.92"/>
  <path d="M 10.56 158.4 C 58.08 216.48, 89.76 205.92, 73.92 132 C 52.8 95.04, 21.12 116.16, 10.56 158.4 Z" fill="#b4c08b" stroke="#314116" stroke-width="7.92"/>
</g>
<g transform="translate(260 860) rotate(180)">
  <rect x="-19.36" y="-102.08" width="38.72" height="204.16" rx="17.6" fill="#8b6331" stroke="#314116" stroke-width="5.28"/>
  <path d="M -19.36 -59.84 C -59.84 -45.76, -59.84 0, -17.6 10.56" fill="none" stroke="#5c6b2d" stroke-width="5.28"/>
  <path d="M -19.36 49.28 C 63.36 31.68, 63.36 -10.56, 17.6 -24.64" fill="none" stroke="#5c6b2d" stroke-width="5.28"/>
  <path d="M -7.04 -105.6 C -38.72 -144.32, -59.84 -137.28, -49.28 -88 C -35.2 -63.36, -14.08 -77.44, -7.04 -105.6 Z" fill="#b4c08b" stroke="#314116" stroke-width="5.28"/>
  <path d="M 7.04 105.6 C 38.72 144.32, 59.84 137.28, 49.28 88 C 35.2 63.36, 14.08 77.44, 7.04 105.6 Z" fill="#b4c08b" stroke="#314116" stroke-width="5.28"/>
</g>
<g transform="translate(490 860) rotate(180)">
  <rect x="-19.36" y="-102.08" width="38.72" height="204.16" rx="17.6" fill="#8b6331" stroke="#314116" stroke-width="5.28"/>
  <path d="M -19.36 -59.84 C -59.84 -45.76, -59.84 0, -17.6 10.56" fill="none" stroke="#5c6b2d" stroke-width="5.28"/>
  <path d="M -19.36 49.28 C 63.36 31.68, 63.36 -10.56, 17.6 -24.64" fill="none" stroke="#5c6b2d" stroke-width="5.28"/>
  <path d="M -7.04 -105.6 C -38.72 -144.32, -59.84 -137.28, -49.28 -88 C -35.2 -63.36, -14.08 -77.44, -7.04 -105.6 Z" fill="#b4c08b" stroke="#314116" stroke-width="5.28"/>
  <path d="M 7.04 105.6 C 38.72 144.32, 59.84 137.28, 49.28 88 C 35.2 63.36, 14.08 77.44, 7.04 105.6 Z" fill="#b4c08b" stroke="#314116" stroke-width="5.28"/>
</g>
</svg>
