<svg xmlns="http://www.w3.org/2000/svg" width="750" height="1200" viewBox="0 0 750 1200" role="img" aria-labelledby="title desc">
  <title id="title">Cuatro de Bastos</title>
  <desc id="desc">Traditional-style Baraja Espanola playing card.</desc>
  <defs>
    <linearGradient id="paperGradient" x1="0" y1="0" x2="0" y2="1">
      <stop offset="0%" stop-color="#fffdf6"/>
      <stop offset="100%" stop-color="#f5eddc"/>
    </linearGradient>
    <filter id="shadow" x="-20%" y="-20%" width="140%" height="140%">
      <feDropShadow dx="0" dy="6" stdDeviation="8" flood-color="#000000" flood-opacity="0.18"/>
    </filter>
  </defs>
    <rect x="18" y="18" width="714" height="1164" rx="34" fill="url(#paperGradient)" stroke="#1f1b16" stroke-width="5" filter="url(#shadow)"/>
  <path d="M 40 64 V 1136" fill="none" stroke="#556227" stroke-width="5"/>
    <path d="M 710 64 V 1136" fill="none" stroke="#556227" stroke-width="5"/>
    <path d="M 40 64 A 24 24 0 0 1 64 40" fill="none" stroke="#556227" stroke-width="5"/>
    <path d="M 686 40 A 24 24 0 0 1 710 64" fill="none" stroke="#556227" stroke-width="5"/>
    <path d="M 40 1136 A 24 24 0 0 0 64 1160" fill="none" stroke="#556227" stroke-width="5"/>
    <path d="M 686 1160 A 24 24 0 0 0 710 1136" fill="none" stroke="#556227" stroke-width="5"/>
  <path d="M 64 40 H 147.5" fill="none" stroke="#556227" stroke-width="5"/>
  <path d="M 243.5 40 H 327" fill="none" stroke="#556227" stroke-width="5"/>
  <path d="M 423 40 H 506.5" fill="none" stroke="#556227" stroke-width="5"/>
  <path d="M 602.5 40 H 686" fill="none" stroke="#556227" stroke-width="5"/>
  <path d="M 64 1160 H 147.5" fill="none" stroke="#556227" stroke-width="5"/>
  <path d="M 243.5 1160 H 327" fill="none" stroke="#556227" stroke-width="5"/>
  <path d="M 423 1160 H 506.5" fill="none" stroke="#556227" stroke-width="5"/>
  <path d="M 602.5 1160 H 686" fill="none" stroke="#556227" stroke-width="5"/>
<g transform="translate(100 140) rotate(0)">
  <rect x="-14.96" y="-78.88" width="29.92" height="157.76" rx="13.6" fill="#8b6331" stroke="#314116" stroke-width="4.08"/>
  <path d="M -14.96 -46.24 C -46.24 -35.36, -46.24 0, -13.6 8.16" fill="none" stroke="#5c6b2d" stroke-width="4.08"/>
  <path d="M -14.96 38.08 C 48.96 24.48, 48.96 -8.16, 13.6 -19.04" fill="none" stroke="#5c6b2d" stroke-width="4.08"/>
  <path d="M -5.44 -81.6 C -29.92 -111.52, -46.24 -106.08, -38.08 -68 C -27.2 -48.96, -10.88 -59.84, -5.44 -81.6 Z" fill="#b4c08b" stroke="#314116" stroke-width="4.08"/>
  <path d="M 5.44 81.6 C 29.92 111.52, 46.24 106.08, 38.08 68 C 27.2 48.96, 10.88 59.84, 5.44 81.6 Z" fill="#b4c08b" stroke="#314116" stroke-width="4.08"/>
</g>
  <g transform="translate(750 1198) rotate(180)">
<g transform="translate(100 140) rotate(0)">
  <rect x="-14.96" y="-78.88" width="29.92" height="157.76" rx="13.6" fill="#8b6331" stroke="#314116" stroke-width="4.08"/>
  <path d="M -14.96 -46.24 C -46.24 -35.36, -46.24 0, -13.6 8.16" fill="none" stroke="#5c6b2d" stroke-width="4.08"/>
  <path d="M -14.96 38.08 C 48.96 24.48, 48.96 -8.16, 13.6 -19.04" fill="none" stroke="#5c6b2d" stroke-width="4.08"/>
  <path d="M -5.44 -81.6 C -29.92 -111.52, -46.24 -106.08, -38.08 -68 C -27.2 -48.96, -10.88 -59.84, -5.44 -81.6 Z" fill="#b4c08b" stroke="#314116" stroke-width="4.08"/>
  <path d="M 5.44 81.6 C 29.92 111.52, 46.24 106.08, 38.08 68 C 27.2 48.96, 10.88 59.84, 5.44 81.6 Z" fill="#b4c08b" stroke="#314116" stroke-width="4.08"/>
</g>
  </g>
  <text x="620" y="200" text-anchor="middle" font-size="212" font-family="Georgia, Times New Roman, serif" font-weight="700" fill="#314116">4</text>
  <g transform="translate(130 1000) rotate(180)">
    <text x="0" y="0" text-anchor="middle" font-size="212" font-family="Georgia, Times New Roman, serif" font-weight="700" fill="#314116">4</text>
  </g>
<g transform="translate(260 340) rotate(0)">
  <rect x="-19.8" y="-104.4" width="39.6" height="208.8" rx="18" fill="#8b6331" stroke="#314116" stroke-width="5.4"/>
  <path d="M -19.8 -61.2 C -61.2 -46.8, -61.2 0, -18 10.8" fill="none" stroke="#5c6b2d" stroke-width="5.4"/>
  <path d="M -19.8 50.4 C 64.8 32.4, 64.8 -10.8, 18 -25.2" fill="none" stroke="#5c6b2d" stroke-width="5.4"/>
  <path d="M -7.2 -108 C -39.6 -147.6, -61.2 -140.4, -50.4 -90 C -36 -64.8, -14.4 -79.2, -7.2 -108 Z" fill="#b4c08b" stroke="#314116" stroke-width="5.4"/>
  <path d="M 7.2 108 C 39.6 147.6, 61.2 140.4, 50.4 90 C 36 64.8, 14.4 79.2, 7.2 108 Z" fill="#b4c08b" stroke="#314116" stroke-width="5.4"/>
</g>
<g transform="translate(490 340) rotate(0)">
  <rect x="-19.8" y="-104.4" width="39.6" height="208.8" rx="18" fill="#8b6331" stroke="#314116" stroke-width="5.4"/>
  <path d="M -19.8 -61.2 C -61.2 -46.8, -61.2 0, -18 10.8" fill="none" stroke="#5c6b2d" stroke-width="5.4"/>
  <path d="M -19.8 50.4 C 64.8 32.4, 64.8 -10.8, 18 -25.2" fill="none" stroke="#5c6b2d" stroke-width="5.4"/>
  <path d="M -7.2 -108 C -39.6 -147.6, -61.2 -140.4, -50.4 -90 C -36 -64.8, -14.4 -79.2, -7.2 -108 Z" fill="#b4c08b" stroke="#314116" stroke-width="5.4"/>
  <path d="M 7.2 108 C 39.6 147.6, 61.2 140.4, 50.4 90 C 36 64.8, 14.4 79.2, 7.2 108 Z" fill="#b4c08b" stroke="#314116" stroke-width="5.4"/>
</g>
<g transform="translate(260 860) rotate(180)">
  <rect x="-19.8" y="-104.4" width="39.6" height="208.8" rx="18" fill="#8b6331" stroke="#314116" stroke-width="5.4"/>
  <path d="M -19.8 -61.2 C -61.2 -46.8, -61.2 0, -18 10.8" fill="none" stroke="#5c6b2d" stroke-width="5.4"/>
  <path d="M -19.8 50.4 C 64.8 32.4, 64.8 -10.8, 18 -25.2" fill="none" stroke="#5c6b2d" stroke-width="5.4"/>
  <path d="M -7.2 -108 C -39.6 -147.6, -61.2 -140.4, -50.4 -90 C -36 -64.8, -14.4 -79.2, -7.2 -108 Z" fill="#b4c08b" stroke="#314116" stroke-width="5.4"/>
  <path d="M 7.2 108 C 39.6 147.6, 61.2 140.4, 50.4 90 C 36 64.8, 14.4 79.2, 7.2 108 Z" fill="#b4c08b" stroke="#314116" stroke-width="5.4"/>
</g>
<g transform="translate(490 860) rotate(180)">
  <rect x="-19.8" y="-104.4" width="39.6" height="208.8" rx="18" fill="#8b6331" stroke="#314116" stroke-width="5.4"/>
  <path d="M -19.8 -61.2 C -61.2 -46.8, -61.2 0, -18 10.8" fill="none" stroke="#5c6b2d" stroke-width="5.4"/>
  <path d="M -19.8 50.4 C 64.8 32.4, 64.8 -10.8, 18 -25.2" fill="none" stroke="#5c6b2d" stroke-width="5.4"/>
  <path d="M -7.2 -108 C -39.6 -147.6, -61.2 -140.4, -50.4 -90 C -36 -64.8, -14.4 -79.2, -7.2 -108 Z" fill="#b4c08b" stroke="#314116" stroke-width="5.4"/>
  <path d="M 7.2 108 C 39.6 147.6, 61.2 140.4, 50.4 90 C 36 64.8, 14.4 79.2, 7.2 108 Z" fill="#b4c08b" stroke="#314116" stroke-width="5.4"/>
</g>
</svg>
