<svg xmlns="http://www.w3.org/2000/svg" width="750" height="1200" viewBox="0 0 750 1200" role="img" aria-labelledby="title desc">
  <title id="title">As de Copas</title>
  <desc id="desc">Traditional-style Baraja Espanola playing card.</desc>
  <defs>
    <linearGradient id="paperGradient" x1="0" y1="0" x2="0" y2="1">
      <stop offset="0%" stop-color="#fffdf6"/>
      <stop offset="100%" stop-color="#f5eddc"/>
    </linearGradient>
    <filter id="shadow" x="-20%" y="-20%" width="140%" height="140%">
      <feDropShadow dx="0" dy="6" stdDeviation="8" flood-color="#000000" flood-opacity="0.18"/>
    </filter>
  </defs>
    <rect x="18" y="18" width="714" height="1164" rx="34" fill="url(#paperGradient)" stroke="#1f1b16" stroke-width="5" filter="url(#shadow)"/>
  <path d="M 50 74 V 1126" fill="none" stroke="#7f2424" stroke-width="20"/>
    <path d="M 700 74 V 1126" fill="none" stroke="#7f2424" stroke-width="20"/>
    <path d="M 50 74 A 24 24 0 0 1 74 50" fill="none" stroke="#7f2424" stroke-width="20"/>
    <path d="M 676 50 A 24 24 0 0 1 700 74" fill="none" stroke="#7f2424" stroke-width="20"/>
    <path d="M 50 1126 A 24 24 0 0 0 74 1150" fill="none" stroke="#7f2424" stroke-width="20"/>
    <path d="M 676 1150 A 24 24 0 0 0 700 1126" fill="none" stroke="#7f2424" stroke-width="20"/>
  <path d="M 74 50 H 327" fill="none" stroke="#7f2424" stroke-width="20"/>
  <path d="M 423 50 H 676" fill="none" stroke="#7f2424" stroke-width="20"/>
  <path d="M 74 1150 H 327" fill="none" stroke="#7f2424" stroke-width="20"/>
  <path d="M 423 1150 H 676" fill="none" stroke="#7f2424" stroke-width="20"/>
<g transform="translate(100 140) rotate(0)">
  <path d="M -40.8 -65.28 C -40.8 -24.48, -24.48 5.44, 0 13.6 C 24.48 5.44, 40.8 -24.48, 40.8 -65.28 Z" fill="#e9b4a8" stroke="#5d1717" stroke-width="4.08"/>
  <path d="M -24.48 -65.28 C -13.6 -89.76, 13.6 -89.76, 24.48 -65.28" fill="none" stroke="#a3352f" stroke-width="4.08"/>
  <path d="M -8.16 13.6 L -16.32 51.68 L 16.32 51.68 L 8.16 13.6 Z" fill="#a3352f" stroke="#5d1717" stroke-width="4.08"/>
  <rect x="-35.36" y="51.68" width="71" height="14" rx="4" fill="#a3352f" stroke="#5d1717" stroke-width="4.08"/>
  <path d="M -35.36 -38.08 C -48.96 -29.92, -51.68 -5.44, -32.64 5.44" fill="none" stroke="#5d1717" stroke-width="4.08"/>
  <path d="M 35.36 -38.08 C 48.96 -29.92, 51.68 -5.44, 32.64 5.44" fill="none" stroke="#5d1717" stroke-width="4.08"/>
</g>
  <g transform="translate(750 1198) rotate(180)">
<g transform="translate(100 140) rotate(0)">
  <path d="M -40.8 -65.28 C -40.8 -24.48, -24.48 5.44, 0 13.6 C 24.48 5.44, 40.8 -24.48, 40.8 -65.28 Z" fill="#e9b4a8" stroke="#5d1717" stroke-width="4.08"/>
  <path d="M -24.48 -65.28 C -13.6 -89.76, 13.6 -89.76, 24.48 -65.28" fill="none" stroke="#a3352f" stroke-width="4.08"/>
  <path d="M -8.16 13.6 L -16.32 51.68 L 16.32 51.68 L 8.16 13.6 Z" fill="#a3352f" stroke="#5d1717" stroke-width="4.08"/>
  <rect x="-35.36" y="51.68" width="71" height="14" rx="4" fill="#a3352f" stroke="#5d1717" stroke-width="4.08"/>
  <path d="M -35.36 -38.08 C -48.96 -29.92, -51.68 -5.44, -32.64 5.44" fill="none" stroke="#5d1717" stroke-width="4.08"/>
  <path d="M 35.36 -38.08 C 48.96 -29.92, 51.68 -5.44, 32.64 5.44" fill="none" stroke="#5d1717" stroke-width="4.08"/>
</g>
  </g>
  <text x="620" y="200" text-anchor="middle" font-size="212" font-family="Georgia, Times New Roman, serif" font-weight="700" fill="#5d1717">1</text>
  <g transform="translate(130 1000) rotate(180)">
    <text x="0" y="0" text-anchor="middle" font-size="212" font-family="Georgia, Times New Roman, serif" font-weight="700" fill="#5d1717">1</text>
  </g>
  <ellipse cx="375" cy="600" rx="160" ry="240" fill="#fbf6ec" stroke="#7f2424" stroke-width="4"/>
  <g transform="translate(375 600) rotate(0)">
  <path d="M -114 -182.4 C -114 -68.4, -68.4 15.2, 0 38 C 68.4 15.2, 114 -68.4, 114 -182.4 Z" fill="#e9b4a8" stroke="#5d1717" stroke-width="11.4"/>
  <path d="M -68.4 -182.4 C -38 -250.8, 38 -250.8, 68.4 -182.4" fill="none" stroke="#a3352f" stroke-width="11.4"/>
  <path d="M -22.8 38 L -45.6 144.4 L 45.6 144.4 L 22.8 38 Z" fill="#a3352f" stroke="#5d1717" stroke-width="11.4"/>
  <rect x="-98.8" y="144.4" width="198" height="38" rx="11" fill="#a3352f" stroke="#5d1717" stroke-width="11.4"/>
  <path d="M -98.8 -106.4 C -136.8 -83.6, -144.4 -15.2, -91.2 15.2" fill="none" stroke="#5d1717" stroke-width="11.4"/>
  <path d="M 98.8 -106.4 C 136.8 -83.6, 144.4 -15.2, 91.2 15.2" fill="none" stroke="#5d1717" stroke-width="11.4"/>
</g>
</svg>
