<svg xmlns="http://www.w3.org/2000/svg" width="750" height="1200" viewBox="0 0 750 1200" role="img" aria-labelledby="title desc">
  <title id="title">Sota de Copas</title>
  <desc id="desc">Traditional-style Baraja Espanola playing card.</desc>
  <defs>
    <linearGradient id="paperGradient" x1="0" y1="0" x2="0" y2="1">
      <stop offset="0%" stop-color="#fffdf6"/>
      <stop offset="100%" stop-color="#f5eddc"/>
    </linearGradient>
    <filter id="shadow" x="-20%" y="-20%" width="140%" height="140%">
      <feDropShadow dx="0" dy="6" stdDeviation="8" flood-color="#000000" flood-opacity="0.18"/>
    </filter>
  </defs>
    <rect x="18" y="18" width="714" height="1164" rx="34" fill="url(#paperGradient)" stroke="#1f1b16" stroke-width="5" filter="url(#shadow)"/>
  <rect x="40" y="40" width="670" height="1120" rx="24" fill="none" stroke="#7f2424" stroke-width="4"/>
<g transform="translate(100 140) rotate(0)">
  <path d="M -40.8 -65.28 C -40.8 -24.48, -24.48 5.44, 0 13.6 C 24.48 5.44, 40.8 -24.48, 40.8 -65.28 Z" fill="#e9b4a8" stroke="#5d1717" stroke-width="4.08"/>
  <path d="M -24.48 -65.28 C -13.6 -89.76, 13.6 -89.76, 24.48 -65.28" fill="none" stroke="#a3352f" stroke-width="4.08"/>
  <path d="M -8.16 13.6 L -16.32 51.68 L 16.32 51.68 L 8.16 13.6 Z" fill="#a3352f" stroke="#5d1717" stroke-width="4.08"/>
  <rect x="-35.36" y="51.68" width="71" height="14" rx="4" fill="#a3352f" stroke="#5d1717" stroke-width="4.08"/>
  <path d="M -35.36 -38.08 C -48.96 -29.92, -51.68 -5.44, -32.64 5.44" fill="none" stroke="#5d1717" stroke-width="4.08"/>
  <path d="M 35.36 -38.08 C 48.96 -29.92, 51.68 -5.44, 32.64 5.44" fill="none" stroke="#5d1717" stroke-width="4.08"/>
</g>
  <g transform="translate(750 1198) rotate(180)">
<g transform="translate(100 140) rotate(0)">
  <path d="M -40.8 -65.28 C -40.8 -24.48, -24.48 5.44, 0 13.6 C 24.48 5.44, 40.8 -24.48, 40.8 -65.28 Z" fill="#e9b4a8" stroke="#5d1717" stroke-width="4.08"/>
  <path d="M -24.48 -65.28 C -13.6 -89.76, 13.6 -89.76, 24.48 -65.28" fill="none" stroke="#a3352f" stroke-width="4.08"/>
  <path d="M -8.16 13.6 L -16.32 51.68 L 16.32 51.68 L 8.16 13.6 Z" fill="#a3352f" stroke="#5d1717" stroke-width="4.08"/>
  <rect x="-35.36" y="51.68" width="71" height="14" rx="4" fill="#a3352f" stroke="#5d1717" stroke-width="4.08"/>
  <path d="M -35.36 -38.08 C -48.96 -29.92, -51.68 -5.44, -32.64 5.44" fill="none" stroke="#5d1717" stroke-width="4.08"/>
  <path d="M 35.36 -38.08 C 48.96 -29.92, 51.68 -5.44, 32.64 5.44" fill="none" stroke="#5d1717" stroke-width="4.08"/>
</g>
  </g>
  <text x="590" y="200" text-anchor="middle" font-size="192" font-family="Georgia, Times New Roman, serif" font-weight="700" fill="#5d1717">10</text>
  <g transform="translate(160 1000) rotate(180)">
    <text x="0" y="0" text-anchor="middle" font-size="192" font-family="Georgia, Times New Roman, serif" font-weight="700" fill="#5d1717">10</text>
  </g>
  <ellipse cx="375" cy="600" rx="160" ry="240" fill="#fbf6ec" stroke="#7f2424" stroke-width="4"/>
  <text x="375" y="660" text-anchor="middle" dominant-baseline="middle" font-size="480">&#x1F472;</text>
  <g transform="translate(190 840) rotate(-30)">
  <path d="M -78 -124.8 C -78 -46.8, -46.8 10.4, 0 26 C 46.8 10.4, 78 -46.8, 78 -124.8 Z" fill="#e9b4a8" stroke="#5d1717" stroke-width="7.8"/>
  <path d="M -46.8 -124.8 C -26 -171.6, 26 -171.6, 46.8 -124.8" fill="none" stroke="#a3352f" stroke-width="7.8"/>
  <path d="M -15.6 26 L -31.2 98.8 L 31.2 98.8 L 15.6 26 Z" fill="#a3352f" stroke="#5d1717" stroke-width="7.8"/>
  <rect x="-67.6" y="98.8" width="135" height="26" rx="8" fill="#a3352f" stroke="#5d1717" stroke-width="7.8"/>
  <path d="M -67.6 -72.8 C -93.6 -57.2, -98.8 -10.4, -62.4 10.4" fill="none" stroke="#5d1717" stroke-width="7.8"/>
  <path d="M 67.6 -72.8 C 93.6 -57.2, 98.8 -10.4, 62.4 10.4" fill="none" stroke="#5d1717" stroke-width="7.8"/>
</g>
  <rect x="200" y="230" width="350" height="110" rx="12" fill="#5d1717" opacity="0.72"/>
  <text x="375" y="300" text-anchor="middle" dominant-baseline="middle" font-size="88" font-family="Georgia, Times New Roman, serif" font-weight="700" fill="#f8eed6" letter-spacing="8">SOTA</text>
</svg>
