<svg xmlns="http://www.w3.org/2000/svg" width="750" height="1200" viewBox="0 0 750 1200" role="img" aria-labelledby="title desc">
  <title id="title">Cuatro de Copas</title>
  <desc id="desc">Traditional-style Baraja Espanola playing card.</desc>
  <defs>
    <linearGradient id="paperGradient" x1="0" y1="0" x2="0" y2="1">
      <stop offset="0%" stop-color="#fffdf6"/>
      <stop offset="100%" stop-color="#f5eddc"/>
    </linearGradient>
    <filter id="shadow" x="-20%" y="-20%" width="140%" height="140%">
      <feDropShadow dx="0" dy="6" stdDeviation="8" flood-color="#000000" flood-opacity="0.18"/>
    </filter>
  </defs>
    <rect x="18" y="18" width="714" height="1164" rx="34" fill="url(#paperGradient)" stroke="#1f1b16" stroke-width="5" filter="url(#shadow)"/>
  <path d="M 50 74 V 1126" fill="none" stroke="#7f2424" stroke-width="20"/>
    <path d="M 700 74 V 1126" fill="none" stroke="#7f2424" stroke-width="20"/>
    <path d="M 50 74 A 24 24 0 0 1 74 50" fill="none" stroke="#7f2424" stroke-width="20"/>
    <path d="M 676 50 A 24 24 0 0 1 700 74" fill="none" stroke="#7f2424" stroke-width="20"/>
    <path d="M 50 1126 A 24 24 0 0 0 74 1150" fill="none" stroke="#7f2424" stroke-width="20"/>
    <path d="M 676 1150 A 24 24 0 0 0 700 1126" fill="none" stroke="#7f2424" stroke-width="20"/>
  <path d="M 74 50 H 327" fill="none" stroke="#7f2424" stroke-width="20"/>
  <path d="M 423 50 H 676" fill="none" stroke="#7f2424" stroke-width="20"/>
  <path d="M 74 1150 H 327" fill="none" stroke="#7f2424" stroke-width="20"/>
  <path d="M 423 1150 H 676" fill="none" stroke="#7f2424" stroke-width="20"/>
<g transform="translate(100 140) rotate(0)">
  <path d="M -40.8 -65.28 C -40.8 -24.48, -24.48 5.44, 0 13.6 C 24.48 5.44, 40.8 -24.48, 40.8 -65.28 Z" fill="#e9b4a8" stroke="#5d1717" stroke-width="4.08"/>
  <path d="M -24.48 -65.28 C -13.6 -89.76, 13.6 -89.76, 24.48 -65.28" fill="none" stroke="#a3352f" stroke-width="4.08"/>
  <path d="M -8.16 13.6 L -16.32 51.68 L 16.32 51.68 L 8.16 13.6 Z" fill="#a3352f" stroke="#5d1717" stroke-width="4.08"/>
  <rect x="-35.36" y="51.68" width="71" height="14" rx="4" fill="#a3352f" stroke="#5d1717" stroke-width="4.08"/>
  <path d="M -35.36 -38.08 C -48.96 -29.92, -51.68 -5.44, -32.64 5.44" fill="none" stroke="#5d1717" stroke-width="4.08"/>
  <path d="M 35.36 -38.08 C 48.96 -29.92, 51.68 -5.44, 32.64 5.44" fill="none" stroke="#5d1717" stroke-width="4.08"/>
</g>
  <g transform="translate(750 1198) rotate(180)">
<g transform="translate(100 140) rotate(0)">
  <path d="M -40.8 -65.28 C -40.8 -24.48, -24.48 5.44, 0 13.6 C 24.48 5.44, 40.8 -24.48, 40.8 -65.28 Z" fill="#e9b4a8" stroke="#5d1717" stroke-width="4.08"/>
  <path d="M -24.48 -65.28 C -13.6 -89.76, 13.6 -89.76, 24.48 -65.28" fill="none" stroke="#a3352f" stroke-width="4.08"/>
  <path d="M -8.16 13.6 L -16.32 51.68 L 16.32 51.68 L 8.16 13.6 Z" fill="#a3352f" stroke="#5d1717" stroke-width="4.08"/>
  <rect x="-35.36" y="51.68" width="71" height="14" rx="4" fill="#a3352f" stroke="#5d1717" stroke-width="4.08"/>
  <path d="M -35.36 -38.08 C -48.96 -29.92, -51.68 -5.44, -32.64 5.44" fill="none" stroke="#5d1717" stroke-width="4.08"/>
  <path d="M 35.36 -38.08 C 48.96 -29.92, 51.68 -5.44, 32.64 5.44" fill="none" stroke="#5d1717" stroke-width="4.08"/>
</g>
  </g>
  <text x="620" y="200" text-anchor="middle" font-size="212" font-family="Georgia, Times New Roman, serif" font-weight="700" fill="#5d1717">4</text>
  <g transform="translate(130 1000) rotate(180)">
    <text x="0" y="0" text-anchor="middle" font-size="212" font-family="Georgia, Times New Roman, serif" font-weight="700" fill="#5d1717">4</text>
  </g>
<g transform="translate(260 340) rotate(0)">
  <path d="M -54 -86.4 C -54 -32.4, -32.4 7.2, 0 18 C 32.4 7.2, 54 -32.4, 54 -86.4 Z" fill="#e9b4a8" stroke="#5d1717" stroke-width="5.4"/>
  <path d="M -32.4 -86.4 C -18 -118.8, 18 -118.8, 32.4 -86.4" fill="none" stroke="#a3352f" stroke-width="5.4"/>
  <path d="M -10.8 18 L -21.6 68.4 L 21.6 68.4 L 10.8 18 Z" fill="#a3352f" stroke="#5d1717" stroke-width="5.4"/>
  <rect x="-46.8" y="68.4" width="94" height="18" rx="5" fill="#a3352f" stroke="#5d1717" stroke-width="5.4"/>
  <path d="M -46.8 -50.4 C -64.8 -39.6, -68.4 -7.2, -43.2 7.2" fill="none" stroke="#5d1717" stroke-width="5.4"/>
  <path d="M 46.8 -50.4 C 64.8 -39.6, 68.4 -7.2, 43.2 7.2" fill="none" stroke="#5d1717" stroke-width="5.4"/>
</g>
<g transform="translate(490 340) rotate(0)">
  <path d="M -54 -86.4 C -54 -32.4, -32.4 7.2, 0 18 C 32.4 7.2, 54 -32.4, 54 -86.4 Z" fill="#e9b4a8" stroke="#5d1717" stroke-width="5.4"/>
  <path d="M -32.4 -86.4 C -18 -118.8, 18 -118.8, 32.4 -86.4" fill="none" stroke="#a3352f" stroke-width="5.4"/>
  <path d="M -10.8 18 L -21.6 68.4 L 21.6 68.4 L 10.8 18 Z" fill="#a3352f" stroke="#5d1717" stroke-width="5.4"/>
  <rect x="-46.8" y="68.4" width="94" height="18" rx="5" fill="#a3352f" stroke="#5d1717" stroke-width="5.4"/>
  <path d="M -46.8 -50.4 C -64.8 -39.6, -68.4 -7.2, -43.2 7.2" fill="none" stroke="#5d1717" stroke-width="5.4"/>
  <path d="M 46.8 -50.4 C 64.8 -39.6, 68.4 -7.2, 43.2 7.2" fill="none" stroke="#5d1717" stroke-width="5.4"/>
</g>
<g transform="translate(260 860) rotate(180)">
  <path d="M -54 -86.4 C -54 -32.4, -32.4 7.2, 0 18 C 32.4 7.2, 54 -32.4, 54 -86.4 Z" fill="#e9b4a8" stroke="#5d1717" stroke-width="5.4"/>
  <path d="M -32.4 -86.4 C -18 -118.8, 18 -118.8, 32.4 -86.4" fill="none" stroke="#a3352f" stroke-width="5.4"/>
  <path d="M -10.8 18 L -21.6 68.4 L 21.6 68.4 L 10.8 18 Z" fill="#a3352f" stroke="#5d1717" stroke-width="5.4"/>
  <rect x="-46.8" y="68.4" width="94" height="18" rx="5" fill="#a3352f" stroke="#5d1717" stroke-width="5.4"/>
  <path d="M -46.8 -50.4 C -64.8 -39.6, -68.4 -7.2, -43.2 7.2" fill="none" stroke="#5d1717" stroke-width="5.4"/>
  <path d="M 46.8 -50.4 C 64.8 -39.6, 68.4 -7.2, 43.2 7.2" fill="none" stroke="#5d1717" stroke-width="5.4"/>
</g>
<g transform="translate(490 860) rotate(180)">
  <path d="M -54 -86.4 C -54 -32.4, -32.4 7.2, 0 18 C 32.4 7.2, 54 -32.4, 54 -86.4 Z" fill="#e9b4a8" stroke="#5d1717" stroke-width="5.4"/>
  <path d="M -32.4 -86.4 C -18 -118.8, 18 -118.8, 32.4 -86.4" fill="none" stroke="#a3352f" stroke-width="5.4"/>
  <path d="M -10.8 18 L -21.6 68.4 L 21.6 68.4 L 10.8 18 Z" fill="#a3352f" stroke="#5d1717" stroke-width="5.4"/>
  <rect x="-46.8" y="68.4" width="94" height="18" rx="5" fill="#a3352f" stroke="#5d1717" stroke-width="5.4"/>
  <path d="M -46.8 -50.4 C -64.8 -39.6, -68.4 -7.2, -43.2 7.2" fill="none" stroke="#5d1717" stroke-width="5.4"/>
  <path d="M 46.8 -50.4 C 64.8 -39.6, 68.4 -7.2, 43.2 7.2" fill="none" stroke="#5d1717" stroke-width="5.4"/>
</g>
</svg>
