<svg xmlns="http://www.w3.org/2000/svg" width="750" height="1200" viewBox="0 0 750 1200" role="img" aria-labelledby="title desc">
  <title id="title">Tres de Copas</title>
  <desc id="desc">Traditional-style Baraja Espanola playing card.</desc>
  <defs>
    <linearGradient id="paperGradient" x1="0" y1="0" x2="0" y2="1">
      <stop offset="0%" stop-color="#fffdf6"/>
      <stop offset="100%" stop-color="#f5eddc"/>
    </linearGradient>
    <filter id="shadow" x="-20%" y="-20%" width="140%" height="140%">
      <feDropShadow dx="0" dy="6" stdDeviation="8" flood-color="#000000" flood-opacity="0.18"/>
    </filter>
  </defs>
    <rect x="18" y="18" width="714" height="1164" rx="34" fill="url(#paperGradient)" stroke="#1f1b16" stroke-width="5" filter="url(#shadow)"/>
  <rect x="40" y="40" width="670" height="1120" rx="24" fill="none" stroke="#7f2424" stroke-width="4"/>
<g transform="translate(100 140) rotate(0)">
  <path d="M -40.8 -65.28 C -40.8 -24.48, -24.48 5.44, 0 13.6 C 24.48 5.44, 40.8 -24.48, 40.8 -65.28 Z" fill="#e9b4a8" stroke="#5d1717" stroke-width="4.08"/>
  <path d="M -24.48 -65.28 C -13.6 -89.76, 13.6 -89.76, 24.48 -65.28" fill="none" stroke="#a3352f" stroke-width="4.08"/>
  <path d="M -8.16 13.6 L -16.32 51.68 L 16.32 51.68 L 8.16 13.6 Z" fill="#a3352f" stroke="#5d1717" stroke-width="4.08"/>
  <rect x="-35.36" y="51.68" width="71" height="14" rx="4" fill="#a3352f" stroke="#5d1717" stroke-width="4.08"/>
  <path d="M -35.36 -38.08 C -48.96 -29.92, -51.68 -5.44, -32.64 5.44" fill="none" stroke="#5d1717" stroke-width="4.08"/>
  <path d="M 35.36 -38.08 C 48.96 -29.92, 51.68 -5.44, 32.64 5.44" fill="none" stroke="#5d1717" stroke-width="4.08"/>
</g>
  <g transform="translate(750 1198) rotate(180)">
<g transform="translate(100 140) rotate(0)">
  <path d="M -40.8 -65.28 C -40.8 -24.48, -24.48 5.44, 0 13.6 C 24.48 5.44, 40.8 -24.48, 40.8 -65.28 Z" fill="#e9b4a8" stroke="#5d1717" stroke-width="4.08"/>
  <path d="M -24.48 -65.28 C -13.6 -89.76, 13.6 -89.76, 24.48 -65.28" fill="none" stroke="#a3352f" stroke-width="4.08"/>
  <path d="M -8.16 13.6 L -16.32 51.68 L 16.32 51.68 L 8.16 13.6 Z" fill="#a3352f" stroke="#5d1717" stroke-width="4.08"/>
  <rect x="-35.36" y="51.68" width="71" height="14" rx="4" fill="#a3352f" stroke="#5d1717" stroke-width="4.08"/>
  <path d="M -35.36 -38.08 C -48.96 -29.92, -51.68 -5.44, -32.64 5.44" fill="none" stroke="#5d1717" stroke-width="4.08"/>
  <path d="M 35.36 -38.08 C 48.96 -29.92, 51.68 -5.44, 32.64 5.44" fill="none" stroke="#5d1717" stroke-width="4.08"/>
</g>
  </g>
  <text x="620" y="200" text-anchor="middle" font-size="212" font-family="Georgia, Times New Roman, serif" font-weight="700" fill="#5d1717">3</text>
  <g transform="translate(130 1000) rotate(180)">
    <text x="0" y="0" text-anchor="middle" font-size="212" font-family="Georgia, Times New Roman, serif" font-weight="700" fill="#5d1717">3</text>
  </g>
<g transform="translate(375 320) rotate(0)">
  <path d="M -57 -91.2 C -57 -34.2, -34.2 7.6, 0 19 C 34.2 7.6, 57 -34.2, 57 -91.2 Z" fill="#e9b4a8" stroke="#5d1717" stroke-width="5.7"/>
  <path d="M -34.2 -91.2 C -19 -125.4, 19 -125.4, 34.2 -91.2" fill="none" stroke="#a3352f" stroke-width="5.7"/>
  <path d="M -11.4 19 L -22.8 72.2 L 22.8 72.2 L 11.4 19 Z" fill="#a3352f" stroke="#5d1717" stroke-width="5.7"/>
  <rect x="-49.4" y="72.2" width="99" height="19" rx="6" fill="#a3352f" stroke="#5d1717" stroke-width="5.7"/>
  <path d="M -49.4 -53.2 C -68.4 -41.8, -72.2 -7.6, -45.6 7.6" fill="none" stroke="#5d1717" stroke-width="5.7"/>
  <path d="M 49.4 -53.2 C 68.4 -41.8, 72.2 -7.6, 45.6 7.6" fill="none" stroke="#5d1717" stroke-width="5.7"/>
</g>
<g transform="translate(375 600) rotate(0)">
  <path d="M -85.5 -136.8 C -85.5 -51.3, -51.3 11.4, 0 28.5 C 51.3 11.4, 85.5 -51.3, 85.5 -136.8 Z" fill="#e9b4a8" stroke="#5d1717" stroke-width="8.55"/>
  <path d="M -51.3 -136.8 C -28.5 -188.1, 28.5 -188.1, 51.3 -136.8" fill="none" stroke="#a3352f" stroke-width="8.55"/>
  <path d="M -17.1 28.5 L -34.2 108.3 L 34.2 108.3 L 17.1 28.5 Z" fill="#a3352f" stroke="#5d1717" stroke-width="8.55"/>
  <rect x="-74.1" y="108.3" width="148" height="28" rx="9" fill="#a3352f" stroke="#5d1717" stroke-width="8.55"/>
  <path d="M -74.1 -79.8 C -102.6 -62.7, -108.3 -11.4, -68.4 11.4" fill="none" stroke="#5d1717" stroke-width="8.55"/>
  <path d="M 74.1 -79.8 C 102.6 -62.7, 108.3 -11.4, 68.4 11.4" fill="none" stroke="#5d1717" stroke-width="8.55"/>
</g>
<g transform="translate(375 880) rotate(180)">
  <path d="M -57 -91.2 C -57 -34.2, -34.2 7.6, 0 19 C 34.2 7.6, 57 -34.2, 57 -91.2 Z" fill="#e9b4a8" stroke="#5d1717" stroke-width="5.7"/>
  <path d="M -34.2 -91.2 C -19 -125.4, 19 -125.4, 34.2 -91.2" fill="none" stroke="#a3352f" stroke-width="5.7"/>
  <path d="M -11.4 19 L -22.8 72.2 L 22.8 72.2 L 11.4 19 Z" fill="#a3352f" stroke="#5d1717" stroke-width="5.7"/>
  <rect x="-49.4" y="72.2" width="99" height="19" rx="6" fill="#a3352f" stroke="#5d1717" stroke-width="5.7"/>
  <path d="M -49.4 -53.2 C -68.4 -41.8, -72.2 -7.6, -45.6 7.6" fill="none" stroke="#5d1717" stroke-width="5.7"/>
  <path d="M 49.4 -53.2 C 68.4 -41.8, 72.2 -7.6, 45.6 7.6" fill="none" stroke="#5d1717" stroke-width="5.7"/>
</g>
</svg>
