<svg xmlns="http://www.w3.org/2000/svg" width="750" height="1200" viewBox="0 0 750 1200" role="img" aria-labelledby="title desc">
  <title id="title">Siete de Espadas</title>
  <desc id="desc">Traditional-style Baraja Espanola playing card.</desc>
  <defs>
    <linearGradient id="paperGradient" x1="0" y1="0" x2="0" y2="1">
      <stop offset="0%" stop-color="#fffdf6"/>
      <stop offset="100%" stop-color="#f5eddc"/>
    </linearGradient>
    <filter id="shadow" x="-20%" y="-20%" width="140%" height="140%">
      <feDropShadow dx="0" dy="6" stdDeviation="8" flood-color="#000000" flood-opacity="0.18"/>
    </filter>
  </defs>
    <rect x="18" y="18" width="714" height="1164" rx="34" fill="url(#paperGradient)" stroke="#1f1b16" stroke-width="5" filter="url(#shadow)"/>
  <path d="M 40 64 V 1136" fill="none" stroke="#39596f" stroke-width="5"/>
    <path d="M 710 64 V 1136" fill="none" stroke="#39596f" stroke-width="5"/>
    <path d="M 40 64 A 24 24 0 0 1 64 40" fill="none" stroke="#39596f" stroke-width="5"/>
    <path d="M 686 40 A 24 24 0 0 1 710 64" fill="none" stroke="#39596f" stroke-width="5"/>
    <path d="M 40 1136 A 24 24 0 0 0 64 1160" fill="none" stroke="#39596f" stroke-width="5"/>
    <path d="M 686 1160 A 24 24 0 0 0 710 1136" fill="none" stroke="#39596f" stroke-width="5"/>
  <path d="M 64 40 H 207.3333" fill="none" stroke="#39596f" stroke-width="5"/>
  <path d="M 303.3333 40 H 446.6667" fill="none" stroke="#39596f" stroke-width="5"/>
  <path d="M 542.6667 40 H 686" fill="none" stroke="#39596f" stroke-width="5"/>
  <path d="M 64 1160 H 207.3333" fill="none" stroke="#39596f" stroke-width="5"/>
  <path d="M 303.3333 1160 H 446.6667" fill="none" stroke="#39596f" stroke-width="5"/>
  <path d="M 542.6667 1160 H 686" fill="none" stroke="#39596f" stroke-width="5"/>
<g transform="translate(100 140) rotate(0)">
  <path d="M 0 -95.2 L 13.6 -29.92 L 0 19.04 L -13.6 -29.92 Z" fill="#bdd0dc" stroke="#243746" stroke-width="4.08"/>
  <rect x="-35.36" y="13.6" width="71" height="12" rx="4" fill="#436b83" stroke="#243746" stroke-width="4.08"/>
  <rect x="-24.48" y="24.48" width="49" height="41" rx="5" fill="#d2a357" stroke="#243746" stroke-width="4.08"/>
  <circle cy="75" r="11" fill="#436b83" stroke="#243746" stroke-width="4.08"/>
</g>
  <g transform="translate(750 1198) rotate(180)">
<g transform="translate(100 140) rotate(0)">
  <path d="M 0 -95.2 L 13.6 -29.92 L 0 19.04 L -13.6 -29.92 Z" fill="#bdd0dc" stroke="#243746" stroke-width="4.08"/>
  <rect x="-35.36" y="13.6" width="71" height="12" rx="4" fill="#436b83" stroke="#243746" stroke-width="4.08"/>
  <rect x="-24.48" y="24.48" width="49" height="41" rx="5" fill="#d2a357" stroke="#243746" stroke-width="4.08"/>
  <circle cy="75" r="11" fill="#436b83" stroke="#243746" stroke-width="4.08"/>
</g>
  </g>
  <text x="620" y="200" text-anchor="middle" font-size="212" font-family="Georgia, Times New Roman, serif" font-weight="700" fill="#243746">7</text>
  <g transform="translate(130 1000) rotate(180)">
    <text x="0" y="0" text-anchor="middle" font-size="212" font-family="Georgia, Times New Roman, serif" font-weight="700" fill="#243746">7</text>
  </g>
<g transform="translate(375 240) rotate(0)">
  <path d="M 0 -112 L 16 -35.2 L 0 22.4 L -16 -35.2 Z" fill="#bdd0dc" stroke="#243746" stroke-width="4.8"/>
  <rect x="-41.6" y="16" width="83" height="14" rx="5" fill="#436b83" stroke="#243746" stroke-width="4.8"/>
  <rect x="-28.8" y="28.8" width="58" height="48" rx="6" fill="#d2a357" stroke="#243746" stroke-width="4.8"/>
  <circle cy="88" r="13" fill="#436b83" stroke="#243746" stroke-width="4.8"/>
</g>
<g transform="translate(260 380) rotate(0)">
  <path d="M 0 -112 L 16 -35.2 L 0 22.4 L -16 -35.2 Z" fill="#bdd0dc" stroke="#243746" stroke-width="4.8"/>
  <rect x="-41.6" y="16" width="83" height="14" rx="5" fill="#436b83" stroke="#243746" stroke-width="4.8"/>
  <rect x="-28.8" y="28.8" width="58" height="48" rx="6" fill="#d2a357" stroke="#243746" stroke-width="4.8"/>
  <circle cy="88" r="13" fill="#436b83" stroke="#243746" stroke-width="4.8"/>
</g>
<g transform="translate(490 380) rotate(0)">
  <path d="M 0 -112 L 16 -35.2 L 0 22.4 L -16 -35.2 Z" fill="#bdd0dc" stroke="#243746" stroke-width="4.8"/>
  <rect x="-41.6" y="16" width="83" height="14" rx="5" fill="#436b83" stroke="#243746" stroke-width="4.8"/>
  <rect x="-28.8" y="28.8" width="58" height="48" rx="6" fill="#d2a357" stroke="#243746" stroke-width="4.8"/>
  <circle cy="88" r="13" fill="#436b83" stroke="#243746" stroke-width="4.8"/>
</g>
<g transform="translate(260 600) rotate(0)">
  <path d="M 0 -112 L 16 -35.2 L 0 22.4 L -16 -35.2 Z" fill="#bdd0dc" stroke="#243746" stroke-width="4.8"/>
  <rect x="-41.6" y="16" width="83" height="14" rx="5" fill="#436b83" stroke="#243746" stroke-width="4.8"/>
  <rect x="-28.8" y="28.8" width="58" height="48" rx="6" fill="#d2a357" stroke="#243746" stroke-width="4.8"/>
  <circle cy="88" r="13" fill="#436b83" stroke="#243746" stroke-width="4.8"/>
</g>
<g transform="translate(490 600) rotate(0)">
  <path d="M 0 -112 L 16 -35.2 L 0 22.4 L -16 -35.2 Z" fill="#bdd0dc" stroke="#243746" stroke-width="4.8"/>
  <rect x="-41.6" y="16" width="83" height="14" rx="5" fill="#436b83" stroke="#243746" stroke-width="4.8"/>
  <rect x="-28.8" y="28.8" width="58" height="48" rx="6" fill="#d2a357" stroke="#243746" stroke-width="4.8"/>
  <circle cy="88" r="13" fill="#436b83" stroke="#243746" stroke-width="4.8"/>
</g>
<g transform="translate(260 820) rotate(180)">
  <path d="M 0 -112 L 16 -35.2 L 0 22.4 L -16 -35.2 Z" fill="#bdd0dc" stroke="#243746" stroke-width="4.8"/>
  <rect x="-41.6" y="16" width="83" height="14" rx="5" fill="#436b83" stroke="#243746" stroke-width="4.8"/>
  <rect x="-28.8" y="28.8" width="58" height="48" rx="6" fill="#d2a357" stroke="#243746" stroke-width="4.8"/>
  <circle cy="88" r="13" fill="#436b83" stroke="#243746" stroke-width="4.8"/>
</g>
<g transform="translate(490 820) rotate(180)">
  <path d="M 0 -112 L 16 -35.2 L 0 22.4 L -16 -35.2 Z" fill="#bdd0dc" stroke="#243746" stroke-width="4.8"/>
  <rect x="-41.6" y="16" width="83" height="14" rx="5" fill="#436b83" stroke="#243746" stroke-width="4.8"/>
  <rect x="-28.8" y="28.8" width="58" height="48" rx="6" fill="#d2a357" stroke="#243746" stroke-width="4.8"/>
  <circle cy="88" r="13" fill="#436b83" stroke="#243746" stroke-width="4.8"/>
</g>
</svg>
