<svg xmlns="http://www.w3.org/2000/svg" width="750" height="1200" viewBox="0 0 750 1200" role="img" aria-labelledby="title desc">
  <title id="title">Sota de Espadas</title>
  <desc id="desc">Traditional-style Baraja Espanola playing card.</desc>
  <defs>
    <linearGradient id="paperGradient" x1="0" y1="0" x2="0" y2="1">
      <stop offset="0%" stop-color="#fffdf6"/>
      <stop offset="100%" stop-color="#f5eddc"/>
    </linearGradient>
    <filter id="shadow" x="-20%" y="-20%" width="140%" height="140%">
      <feDropShadow dx="0" dy="6" stdDeviation="8" flood-color="#000000" flood-opacity="0.18"/>
    </filter>
  </defs>
    <rect x="18" y="18" width="714" height="1164" rx="34" fill="url(#paperGradient)" stroke="#1f1b16" stroke-width="5" filter="url(#shadow)"/>
  <rect x="40" y="40" width="670" height="1120" rx="24" fill="none" stroke="#39596f" stroke-width="4"/>
<g transform="translate(100 140) rotate(0)">
  <path d="M 0 -95.2 L 13.6 -29.92 L 0 19.04 L -13.6 -29.92 Z" fill="#bdd0dc" stroke="#243746" stroke-width="4.08"/>
  <rect x="-35.36" y="13.6" width="71" height="12" rx="4" fill="#436b83" stroke="#243746" stroke-width="4.08"/>
  <rect x="-24.48" y="24.48" width="49" height="41" rx="5" fill="#d2a357" stroke="#243746" stroke-width="4.08"/>
  <circle cy="75" r="11" fill="#436b83" stroke="#243746" stroke-width="4.08"/>
</g>
  <g transform="translate(750 1198) rotate(180)">
<g transform="translate(100 140) rotate(0)">
  <path d="M 0 -95.2 L 13.6 -29.92 L 0 19.04 L -13.6 -29.92 Z" fill="#bdd0dc" stroke="#243746" stroke-width="4.08"/>
  <rect x="-35.36" y="13.6" width="71" height="12" rx="4" fill="#436b83" stroke="#243746" stroke-width="4.08"/>
  <rect x="-24.48" y="24.48" width="49" height="41" rx="5" fill="#d2a357" stroke="#243746" stroke-width="4.08"/>
  <circle cy="75" r="11" fill="#436b83" stroke="#243746" stroke-width="4.08"/>
</g>
  </g>
  <text x="590" y="200" text-anchor="middle" font-size="192" font-family="Georgia, Times New Roman, serif" font-weight="700" fill="#243746">10</text>
  <g transform="translate(160 1000) rotate(180)">
    <text x="0" y="0" text-anchor="middle" font-size="192" font-family="Georgia, Times New Roman, serif" font-weight="700" fill="#243746">10</text>
  </g>
  <ellipse cx="375" cy="600" rx="160" ry="240" fill="#fbf6ec" stroke="#39596f" stroke-width="4"/>
  <text x="375" y="660" text-anchor="middle" dominant-baseline="middle" font-size="480">&#x1F472;</text>
  <g transform="translate(190 840) rotate(-30)">
  <path d="M 0 -182 L 26 -57.2 L 0 36.4 L -26 -57.2 Z" fill="#bdd0dc" stroke="#243746" stroke-width="7.8"/>
  <rect x="-67.6" y="26" width="135" height="23" rx="8" fill="#436b83" stroke="#243746" stroke-width="7.8"/>
  <rect x="-46.8" y="46.8" width="94" height="78" rx="10" fill="#d2a357" stroke="#243746" stroke-width="7.8"/>
  <circle cy="143" r="21" fill="#436b83" stroke="#243746" stroke-width="7.8"/>
</g>
  <rect x="200" y="230" width="350" height="110" rx="12" fill="#243746" opacity="0.72"/>
  <text x="375" y="300" text-anchor="middle" dominant-baseline="middle" font-size="88" font-family="Georgia, Times New Roman, serif" font-weight="700" fill="#f8eed6" letter-spacing="8">SOTA</text>
</svg>
