<svg xmlns="http://www.w3.org/2000/svg" width="750" height="1200" viewBox="0 0 750 1200" role="img" aria-labelledby="title desc">
  <title id="title">As de Espadas</title>
  <desc id="desc">Traditional-style Baraja Espanola playing card.</desc>
  <defs>
    <linearGradient id="paperGradient" x1="0" y1="0" x2="0" y2="1">
      <stop offset="0%" stop-color="#fffdf6"/>
      <stop offset="100%" stop-color="#f5eddc"/>
    </linearGradient>
    <filter id="shadow" x="-20%" y="-20%" width="140%" height="140%">
      <feDropShadow dx="0" dy="6" stdDeviation="8" flood-color="#000000" flood-opacity="0.18"/>
    </filter>
  </defs>
    <rect x="18" y="18" width="714" height="1164" rx="34" fill="url(#paperGradient)" stroke="#1f1b16" stroke-width="5" filter="url(#shadow)"/>
  <path d="M 50 74 V 1126" fill="none" stroke="#39596f" stroke-width="20"/>
    <path d="M 700 74 V 1126" fill="none" stroke="#39596f" stroke-width="20"/>
    <path d="M 50 74 A 24 24 0 0 1 74 50" fill="none" stroke="#39596f" stroke-width="20"/>
    <path d="M 676 50 A 24 24 0 0 1 700 74" fill="none" stroke="#39596f" stroke-width="20"/>
    <path d="M 50 1126 A 24 24 0 0 0 74 1150" fill="none" stroke="#39596f" stroke-width="20"/>
    <path d="M 676 1150 A 24 24 0 0 0 700 1126" fill="none" stroke="#39596f" stroke-width="20"/>
  <path d="M 74 50 H 210.6667" fill="none" stroke="#39596f" stroke-width="20"/>
  <path d="M 306.6667 50 H 443.3333" fill="none" stroke="#39596f" stroke-width="20"/>
  <path d="M 539.3333 50 H 676" fill="none" stroke="#39596f" stroke-width="20"/>
  <path d="M 74 1150 H 210.6667" fill="none" stroke="#39596f" stroke-width="20"/>
  <path d="M 306.6667 1150 H 443.3333" fill="none" stroke="#39596f" stroke-width="20"/>
  <path d="M 539.3333 1150 H 676" fill="none" stroke="#39596f" stroke-width="20"/>
<g transform="translate(100 140) rotate(0)">
  <path d="M 0 -95.2 L 13.6 -29.92 L 0 19.04 L -13.6 -29.92 Z" fill="#bdd0dc" stroke="#243746" stroke-width="4.08"/>
  <rect x="-35.36" y="13.6" width="71" height="12" rx="4" fill="#436b83" stroke="#243746" stroke-width="4.08"/>
  <rect x="-24.48" y="24.48" width="49" height="41" rx="5" fill="#d2a357" stroke="#243746" stroke-width="4.08"/>
  <circle cy="75" r="11" fill="#436b83" stroke="#243746" stroke-width="4.08"/>
</g>
  <g transform="translate(750 1198) rotate(180)">
<g transform="translate(100 140) rotate(0)">
  <path d="M 0 -95.2 L 13.6 -29.92 L 0 19.04 L -13.6 -29.92 Z" fill="#bdd0dc" stroke="#243746" stroke-width="4.08"/>
  <rect x="-35.36" y="13.6" width="71" height="12" rx="4" fill="#436b83" stroke="#243746" stroke-width="4.08"/>
  <rect x="-24.48" y="24.48" width="49" height="41" rx="5" fill="#d2a357" stroke="#243746" stroke-width="4.08"/>
  <circle cy="75" r="11" fill="#436b83" stroke="#243746" stroke-width="4.08"/>
</g>
  </g>
  <text x="620" y="200" text-anchor="middle" font-size="212" font-family="Georgia, Times New Roman, serif" font-weight="700" fill="#243746">1</text>
  <g transform="translate(130 1000) rotate(180)">
    <text x="0" y="0" text-anchor="middle" font-size="212" font-family="Georgia, Times New Roman, serif" font-weight="700" fill="#243746">1</text>
  </g>
  <ellipse cx="375" cy="600" rx="160" ry="240" fill="#fbf6ec" stroke="#39596f" stroke-width="4"/>
  <g transform="translate(375 600) rotate(0)">
  <path d="M 0 -266 L 38 -83.6 L 0 53.2 L -38 -83.6 Z" fill="#bdd0dc" stroke="#243746" stroke-width="11.4"/>
  <rect x="-98.8" y="38" width="198" height="34" rx="11" fill="#436b83" stroke="#243746" stroke-width="11.4"/>
  <rect x="-68.4" y="68.4" width="137" height="114" rx="15" fill="#d2a357" stroke="#243746" stroke-width="11.4"/>
  <circle cy="209" r="30" fill="#436b83" stroke="#243746" stroke-width="11.4"/>
</g>
</svg>
