<svg xmlns="http://www.w3.org/2000/svg" width="750" height="1200" viewBox="0 0 750 1200" role="img" aria-labelledby="title desc">
  <title id="title">Sota de Oros</title>
  <desc id="desc">Traditional-style Baraja Espanola playing card.</desc>
  <defs>
    <linearGradient id="paperGradient" x1="0" y1="0" x2="0" y2="1">
      <stop offset="0%" stop-color="#fffdf6"/>
      <stop offset="100%" stop-color="#f5eddc"/>
    </linearGradient>
    <filter id="shadow" x="-20%" y="-20%" width="140%" height="140%">
      <feDropShadow dx="0" dy="6" stdDeviation="8" flood-color="#000000" flood-opacity="0.18"/>
    </filter>
  </defs>
    <rect x="18" y="18" width="714" height="1164" rx="34" fill="url(#paperGradient)" stroke="#1f1b16" stroke-width="5" filter="url(#shadow)"/>
  <rect x="40" y="40" width="670" height="1120" rx="24" fill="none" stroke="#8f6713" stroke-width="4"/>
<g transform="translate(100 140) rotate(0)">
  <circle r="62.56" fill="#f4d78a" stroke="#784b0b" stroke-width="4.08"/>
  <circle r="48.96" fill="none" stroke="#c28a1e" stroke-width="4.08"/>
  <circle r="35.36" fill="#fbf4d9" stroke="#784b0b" stroke-width="4.08"/>
  <path d="M 0 -24.48 L 24.48 0 L 0 24.48 L -24.48 0 Z" fill="#c28a1e" stroke="#784b0b" stroke-width="4.08"/>
  <path d="M -24.48 0 L 0 -24.48 L 24.48 0 L 0 24.48 Z" fill="none" stroke="#784b0b" stroke-width="4.08"/>
</g>
  <g transform="translate(750 1198) rotate(180)">
<g transform="translate(100 140) rotate(0)">
  <circle r="62.56" fill="#f4d78a" stroke="#784b0b" stroke-width="4.08"/>
  <circle r="48.96" fill="none" stroke="#c28a1e" stroke-width="4.08"/>
  <circle r="35.36" fill="#fbf4d9" stroke="#784b0b" stroke-width="4.08"/>
  <path d="M 0 -24.48 L 24.48 0 L 0 24.48 L -24.48 0 Z" fill="#c28a1e" stroke="#784b0b" stroke-width="4.08"/>
  <path d="M -24.48 0 L 0 -24.48 L 24.48 0 L 0 24.48 Z" fill="none" stroke="#784b0b" stroke-width="4.08"/>
</g>
  </g>
  <text x="590" y="200" text-anchor="middle" font-size="192" font-family="Georgia, Times New Roman, serif" font-weight="700" fill="#784b0b">10</text>
  <g transform="translate(160 1000) rotate(180)">
    <text x="0" y="0" text-anchor="middle" font-size="192" font-family="Georgia, Times New Roman, serif" font-weight="700" fill="#784b0b">10</text>
  </g>
  <ellipse cx="375" cy="600" rx="160" ry="240" fill="#fbf6ec" stroke="#8f6713" stroke-width="4"/>
  <text x="375" y="660" text-anchor="middle" dominant-baseline="middle" font-size="480">&#x1F472;</text>
  <g transform="translate(190 840) rotate(-30)">
  <circle r="119.6" fill="#f4d78a" stroke="#784b0b" stroke-width="7.8"/>
  <circle r="93.6" fill="none" stroke="#c28a1e" stroke-width="7.8"/>
  <circle r="67.6" fill="#fbf4d9" stroke="#784b0b" stroke-width="7.8"/>
  <path d="M 0 -46.8 L 46.8 0 L 0 46.8 L -46.8 0 Z" fill="#c28a1e" stroke="#784b0b" stroke-width="7.8"/>
  <path d="M -46.8 0 L 0 -46.8 L 46.8 0 L 0 46.8 Z" fill="none" stroke="#784b0b" stroke-width="7.8"/>
</g>
  <rect x="200" y="230" width="350" height="110" rx="12" fill="#784b0b" opacity="0.72"/>
  <text x="375" y="300" text-anchor="middle" dominant-baseline="middle" font-size="88" font-family="Georgia, Times New Roman, serif" font-weight="700" fill="#f8eed6" letter-spacing="8">SOTA</text>
</svg>
